<svg xmlns="http://www.w3.org/2000/svg" viewBox="0 0 48 48">
  <circle cx="24" cy="24" r="24" fill="#00a884"/>
  <path d="M34.6 13.4C31.8 10.5 28 9 24 9c-8.3 0-15 6.7-15 15 0 2.6.7 5.2 2 7.5L9 39l7.7-2c2.2 1.2 4.7 1.8 7.3 1.8 8.3 0 15-6.7 15-15 0-4-1.6-7.8-4.4-10.6zM24 36.2c-2.2 0-4.4-.6-6.3-1.7l-.5-.3-4.6 1.2 1.2-4.4-.3-.5c-1.2-2-1.9-4.3-1.9-6.5 0-6.9 5.6-12.5 12.5-12.5 3.3 0 6.5 1.3 8.8 3.7 2.3 2.3 3.7 5.5 3.7 8.8-.1 6.8-5.7 12.2-12.6 12.2zm6.9-9.4c-.4-.2-2.3-1.1-2.6-1.3-.3-.1-.6-.2-.8.2s-1 1.3-1.2 1.5c-.2.2-.4.3-.8.1-.4-.2-1.6-.6-3.1-1.9-1.1-1-1.9-2.3-2.1-2.6-.2-.4 0-.6.2-.8.2-.2.4-.4.6-.7.2-.2.2-.4.4-.7.1-.2 0-.5-.1-.7-.1-.2-1-2.3-1.3-3.1-.3-.8-.7-.7-1-.7h-.8c-.3 0-.7.1-1 .4-.3.4-1.3 1.3-1.3 3.1 0 1.8 1.3 3.6 1.5 3.8.2.2 2.6 4 6.3 5.6.9.4 1.6.6 2.1.8.9.3 1.7.2 2.3.1.7-.1 2.3-.9 2.6-1.8.3-.9.3-1.7.2-1.8-.1-.2-.4-.3-.8-.5z" fill="white"/>
</svg>